%TF.GenerationSoftware,KiCad,Pcbnew,(5.1.10)-1*%
%TF.CreationDate,2021-12-17T20:29:05+09:00*%
%TF.ProjectId,KiCAD_Gentlman_V5.3,4b694341-445f-4476-956e-746c6d616e5f,rev?*%
%TF.SameCoordinates,Original*%
%TF.FileFunction,Soldermask,Bot*%
%TF.FilePolarity,Negative*%
%FSLAX46Y46*%
G04 Gerber Fmt 4.6, Leading zero omitted, Abs format (unit mm)*
G04 Created by KiCad (PCBNEW (5.1.10)-1) date 2021-12-17 20:29:05*
%MOMM*%
%LPD*%
G01*
G04 APERTURE LIST*
%ADD10R,1.700000X1.700000*%
%ADD11O,1.700000X1.700000*%
%ADD12O,1.000000X1.700000*%
%ADD13C,2.000000*%
G04 APERTURE END LIST*
D10*
%TO.C,JP9*%
X130500000Y-89460000D03*
D11*
X130500000Y-92000000D03*
%TD*%
D10*
%TO.C,JP8*%
X133500000Y-89460000D03*
D11*
X133500000Y-92000000D03*
%TD*%
D10*
%TO.C,JP7*%
X98250000Y-91500000D03*
D11*
X98250000Y-94040000D03*
%TD*%
D10*
%TO.C,JP6*%
X101250000Y-91500000D03*
D11*
X101250000Y-94040000D03*
%TD*%
D10*
%TO.C,JP5*%
X160000000Y-99500000D03*
D11*
X160000000Y-102040000D03*
%TD*%
D10*
%TO.C,JP4*%
X163000000Y-99500000D03*
D11*
X163000000Y-102040000D03*
%TD*%
D10*
%TO.C,J8*%
X93000000Y-105500000D03*
D11*
X90460000Y-105500000D03*
%TD*%
D12*
%TO.C,J4*%
X36820000Y-25400000D03*
X28180000Y-25400000D03*
X28180000Y-21600000D03*
X36820000Y-21600000D03*
%TD*%
D13*
%TO.C,SW3*%
X36250000Y-85250000D03*
X36250000Y-80750000D03*
X42750000Y-85250000D03*
X42750000Y-80750000D03*
%TD*%
%TO.C,SW2*%
X44750000Y-75250000D03*
X44750000Y-70750000D03*
X51250000Y-75250000D03*
X51250000Y-70750000D03*
%TD*%
D10*
%TO.C,J1*%
X42000000Y-23000000D03*
D11*
X44540000Y-23000000D03*
X47080000Y-23000000D03*
X49620000Y-23000000D03*
X52160000Y-23000000D03*
X54700000Y-23000000D03*
X57240000Y-23000000D03*
%TD*%
D10*
%TO.C,JP3*%
X151100000Y-89700000D03*
D11*
X151100000Y-92240000D03*
%TD*%
D10*
%TO.C,JP2*%
X95000000Y-91500000D03*
D11*
X95000000Y-94040000D03*
%TD*%
D10*
%TO.C,JP1*%
X157000000Y-82200000D03*
D11*
X157000000Y-84740000D03*
%TD*%
D13*
%TO.C,SW1*%
X26750000Y-75250000D03*
X26750000Y-70750000D03*
X33250000Y-75250000D03*
X33250000Y-70750000D03*
%TD*%
%TO.C,SW5*%
X44750000Y-95250000D03*
X44750000Y-90750000D03*
X51250000Y-95250000D03*
X51250000Y-90750000D03*
%TD*%
%TO.C,SW4*%
X26750000Y-95250000D03*
X26750000Y-90750000D03*
X33250000Y-95250000D03*
X33250000Y-90750000D03*
%TD*%
D10*
%TO.C,J7*%
X59780000Y-23000000D03*
D11*
X62320000Y-23000000D03*
X64860000Y-23000000D03*
X67400000Y-23000000D03*
X69940000Y-23000000D03*
%TD*%
M02*
