M48
; DRILL file {KiCad (5.1.10)-1} date 12/02/21 19:38:58
; FORMAT={-:-/ absolute / metric / decimal}
; #@! TF.CreationDate,2021-12-02T19:38:58+09:00
; #@! TF.GenerationSoftware,Kicad,Pcbnew,(5.1.10)-1
; #@! TF.FileFunction,Plated,1,2,PTH
FMAT,2
METRIC
T1C0.300
T2C0.381
T3C0.500
T4C1.000
T5C1.100
%
G90
G05
T1
X21.0Y-43.6
X22.5Y-27.5
X22.5Y-32.5
X22.5Y-57.5
X22.5Y-67.5
X22.5Y-77.5
X22.5Y-87.5
X22.5Y-97.5
X23.0Y-43.6
X25.2Y-58.0
X29.0Y-57.4
X29.2Y-58.0
X30.0Y-69.75
X30.0Y-80.0
X30.0Y-89.25
X30.5Y-42.0
X32.0Y-64.8
X32.0Y-66.6
X32.0Y-86.6
X32.5Y-32.5
X32.5Y-37.0
X33.2Y-58.0
X35.0Y-30.0
X36.0Y-34.5
X36.0Y-37.0
X37.2Y-58.0
X37.5Y-32.5
X37.5Y-97.5
X38.175Y-49.075
X38.175Y-51.825
X39.5Y-79.25
X39.5Y-86.875
X39.5Y-89.0
X39.8Y-64.95
X40.0Y-30.0
X41.2Y-58.0
X41.496Y-65.475
X41.496Y-68.004
X42.175Y-48.55
X42.175Y-51.825
X42.5Y-32.5
X42.5Y-42.5
X42.5Y-62.5
X44.5Y-28.5
X45.0Y-30.0
X45.0Y-40.0
X45.0Y-45.0
X45.2Y-58.0
X46.175Y-48.025
X46.175Y-51.825
X47.5Y-80.0
X47.556Y-64.306
X48.0Y-69.75
X48.0Y-89.75
X48.15Y-33.5
X48.15Y-36.15
X48.85Y-44.775
X49.056Y-64.306
X50.0Y-86.6
X50.275Y-44.775
X51.8Y-57.0
X51.965Y-51.572
X52.075Y-73.9
X52.226Y-51.032
X52.425Y-49.075
X52.5Y-32.5
X52.5Y-47.25
X52.5Y-50.425
X52.576Y-47.947
X52.592Y-80.6
X53.0Y-65.0
X53.25Y-49.0
X53.25Y-50.5
X53.85Y-29.75
X54.0Y-43.5
X54.0Y-45.5
X54.1Y-73.9
X54.2Y-84.8
X54.2Y-86.075
X54.4Y-29.75
X54.75Y-45.725
X54.95Y-29.75
X55.0Y-25.0
X55.25Y-45.3
X55.5Y-29.75
X55.55Y-51.25
X55.55Y-52.0
X55.55Y-52.75
X55.55Y-53.8
X55.55Y-54.47
X55.775Y-44.25
X55.8Y-84.8
X55.8Y-86.6
X56.27Y-48.503
X56.75Y-50.25
X56.87Y-48.499
X56.9Y-107.9
X57.5Y-50.775
X57.5Y-60.0
X57.5Y-70.0
X57.5Y-95.0
X58.25Y-52.275
X58.25Y-54.75
X58.365Y-72.885
X59.5Y-107.9
X59.826Y-51.826
X60.5Y-30.75
X60.5Y-35.0
X60.75Y-31.25
X61.25Y-85.5
X61.25Y-31.75
X61.51Y-34.49
X62.175Y-72.825
X62.225Y-34.5
X62.5Y-71.0
X62.5Y-90.0
X62.725Y-86.075
X62.75Y-32.25
X62.75Y-70.0
X63.25Y-32.75
X63.445Y-72.805
X63.75Y-33.125
X64.15Y-86.6
X64.225Y-50.082
X64.25Y-34.25
X64.75Y-34.75
X64.86Y-27.31
X65.0Y-57.5
X65.213Y-50.768
X65.25Y-35.25
X65.75Y-50.5
X66.25Y-35.75
X67.4Y-27.3
X67.5Y-70.0
X67.5Y-77.5
X68.2Y-102.0
X68.2Y-105.2
X68.25Y-98.25
X68.25Y-100.35
X69.0Y-27.825
X69.3Y-31.025
X69.75Y-28.35
X69.9Y-31.025
X70.0Y-60.0
X70.5Y-28.35
X70.5Y-31.025
X70.65Y-80.35
X71.0Y-44.725
X71.25Y-80.35
X71.25Y-82.35
X71.25Y-84.25
X71.75Y-54.225
X72.0Y-80.35
X72.0Y-82.35
X72.225Y-38.5
X72.225Y-39.1
X72.25Y-40.75
X72.272Y-53.228
X72.5Y-95.0
X72.5Y-54.75
X72.518Y-41.287
X72.75Y-80.35
X72.75Y-83.0
X73.0Y-53.775
X73.186Y-84.064
X73.25Y-42.225
X73.725Y-35.3
X73.725Y-39.1
X74.25Y-34.25
X74.253Y-49.742
X74.337Y-99.75
X74.337Y-101.137
X74.492Y-43.242
X75.0Y-55.0
X75.0Y-67.5
X75.0Y-75.0
X75.037Y-99.75
X75.037Y-101.1
X75.3Y-35.25
X75.3Y-39.25
X75.3Y-39.85
X75.38Y-45.8
X75.414Y-43.664
X75.453Y-42.953
X75.75Y-46.275
X76.25Y-46.75
X76.477Y-48.894
X76.738Y-47.256
X76.806Y-47.86
X77.225Y-48.5
X77.5Y-90.0
X77.75Y-49.5
X78.325Y-49.075
X78.65Y-33.75
X78.65Y-36.5
X78.775Y-50.25
X78.85Y-80.35
X79.2Y-33.75
X79.2Y-36.5
X79.5Y-80.35
X79.5Y-82.35
X79.75Y-33.75
X79.75Y-36.5
X80.35Y-62.492
X81.0Y-78.75
X82.5Y-95.0
X83.0Y-24.25
X83.0Y-25.75
X83.0Y-31.5
X83.0Y-33.5
X83.0Y-46.5
X83.0Y-48.5
X83.0Y-61.5
X83.0Y-63.5
X83.75Y-40.0
X83.75Y-55.0
X83.75Y-70.0
X84.0Y-24.25
X84.0Y-54.5
X84.0Y-69.5
X84.25Y-39.0
X84.25Y-54.0
X84.25Y-69.0
X84.5Y-38.5
X84.5Y-53.5
X84.5Y-68.5
X84.75Y-24.25
X84.75Y-38.0
X84.75Y-53.0
X84.75Y-68.0
X86.5Y-39.5
X86.75Y-39.0
X87.0Y-38.5
X87.191Y-63.8
X87.247Y-48.8
X87.247Y-78.8
X87.25Y-33.8
X87.25Y-38.0
X87.5Y-37.5
X87.5Y-90.0
X88.75Y-25.75
X89.0Y-25.0
X89.075Y-27.675
X89.075Y-42.675
X89.075Y-57.675
X89.075Y-72.675
X89.25Y-24.5
X89.5Y-24.0
X90.25Y-22.5
X90.5Y-22.0
X90.75Y-21.5
X91.0Y-21.0
X95.0Y-90.0
X95.0Y-97.5
X99.0Y-82.35
X100.3Y-81.7
X102.1Y-81.7
X102.258Y-82.35
X105.475Y-105.32
X106.0Y-101.0
X106.0Y-102.25
X106.0Y-109.25
X129.8Y-32.8
X129.8Y-47.8
X129.8Y-62.8
X129.8Y-77.8
X130.0Y-105.0
X132.5Y-97.5
X134.75Y-109.25
X134.773Y-108.2
X135.0Y-90.0
X136.0Y-31.25
X136.0Y-46.25
X136.0Y-61.25
X136.0Y-76.25
X136.0Y-76.25
X140.8Y-32.8
X140.8Y-47.8
X140.8Y-62.8
X140.8Y-77.8
X142.5Y-87.5
X146.5Y-91.0
X147.0Y-31.25
X147.0Y-46.25
X147.0Y-61.25
X147.0Y-76.25
X147.5Y-91.0
X150.0Y-100.0
X150.0Y-105.0
X150.4Y-81.7
X151.8Y-32.8
X151.8Y-47.8
X155.0Y-95.0
X155.0Y-100.0
X155.0Y-105.0
X158.0Y-31.25
X158.0Y-46.25
X158.0Y-88.0
X160.0Y-100.0
X160.0Y-105.0
X160.5Y-88.0
X161.36Y-84.74
X162.8Y-32.8
X162.8Y-47.8
X165.0Y-100.0
X165.0Y-105.0
X166.0Y-84.0
X167.5Y-84.7
X169.0Y-31.25
X169.0Y-46.25
X170.0Y-100.0
X170.0Y-105.0
X175.3Y-26.98
X175.3Y-28.98
X175.3Y-32.98
X175.3Y-34.98
X175.3Y-42.0
X175.3Y-44.0
X175.3Y-48.0
X175.3Y-50.0
X177.55Y-68.05
X177.55Y-69.95
X177.55Y-71.55
X177.55Y-73.45
X179.7Y-34.98
X179.7Y-50.0
X180.5Y-33.48
X180.5Y-48.5
X182.0Y-66.5
X183.0Y-62.5
X183.125Y-64.0
X183.65Y-65.0
T2
X175.571Y-85.314
X175.571Y-86.33
X175.571Y-87.346
X175.571Y-88.362
X175.571Y-91.638
X175.571Y-92.654
X175.571Y-93.67
X175.571Y-94.686
X175.571Y-95.702
X175.571Y-96.718
X175.571Y-97.734
X175.571Y-98.75
X175.571Y-99.766
X175.571Y-100.782
X175.571Y-101.798
X176.588Y-85.314
X176.588Y-86.33
X176.588Y-87.346
X176.588Y-88.362
X176.588Y-91.638
X176.588Y-92.654
X176.588Y-93.67
X176.588Y-94.686
X176.588Y-95.702
X176.588Y-96.718
X176.588Y-97.734
X176.588Y-98.75
X176.588Y-99.766
X176.588Y-100.782
X176.588Y-101.798
X177.603Y-85.314
X177.603Y-86.33
X177.603Y-87.346
X177.603Y-88.362
X177.603Y-91.638
X177.603Y-92.654
X177.603Y-93.67
X177.603Y-94.686
X177.603Y-95.702
X177.603Y-96.718
X177.603Y-97.734
X177.603Y-98.75
X177.603Y-99.766
X177.603Y-100.782
X177.603Y-101.798
X178.619Y-85.314
X178.619Y-86.33
X178.619Y-87.346
X178.619Y-88.362
X178.619Y-91.638
X178.619Y-92.654
X178.619Y-93.67
X178.619Y-94.686
X178.619Y-95.702
X178.619Y-96.718
X178.619Y-97.734
X178.619Y-98.75
X178.619Y-99.766
X178.619Y-100.782
X178.619Y-101.798
X179.635Y-85.314
X179.635Y-86.33
X179.635Y-87.346
X179.635Y-88.362
X179.635Y-91.638
X179.635Y-92.654
X179.635Y-93.67
X179.635Y-94.686
X179.635Y-95.702
X179.635Y-96.718
X179.635Y-97.734
X179.635Y-98.75
X179.635Y-99.766
X179.635Y-100.782
X179.635Y-101.798
X181.159Y-96.934
T4
X42.0Y-23.0
X44.54Y-23.0
X47.08Y-23.0
X49.62Y-23.0
X52.16Y-23.0
X54.7Y-23.0
X57.24Y-23.0
X59.78Y-23.0
X62.32Y-23.0
X64.86Y-23.0
X67.4Y-23.0
X69.94Y-23.0
X90.46Y-105.5
X93.0Y-105.5
X101.2Y-101.06
X101.2Y-103.6
X151.1Y-89.7
X151.1Y-92.24
X157.0Y-82.2
X157.0Y-84.74
T5
X26.75Y-70.75
X26.75Y-75.25
X26.75Y-90.75
X26.75Y-95.25
X33.25Y-70.75
X33.25Y-75.25
X33.25Y-90.75
X33.25Y-95.25
X36.25Y-80.75
X36.25Y-85.25
X42.75Y-80.75
X42.75Y-85.25
X44.75Y-70.75
X44.75Y-75.25
X44.75Y-90.75
X44.75Y-95.25
X51.25Y-70.75
X51.25Y-75.25
X51.25Y-90.75
X51.25Y-95.25
T3
G00X28.18Y-21.95
M15
G01X28.18Y-21.25
M16
G05
G00X28.18Y-25.75
M15
G01X28.18Y-25.05
M16
G05
G00X36.82Y-21.95
M15
G01X36.82Y-21.25
M16
G05
G00X36.82Y-25.75
M15
G01X36.82Y-25.05
M16
G05
T0
M30
